FILE "Milk Run Smuggler's Tales, Book 1.m4b" MP4
TRACK 1 AUDIO
  TITLE "Chapter 01"
  INDEX 01 0:0:00
TRACK 2 AUDIO
  TITLE "Chapter 02"
  INDEX 01 11:12:33
TRACK 3 AUDIO
  TITLE "Chapter 03"
  INDEX 01 18:46:05
TRACK 4 AUDIO
  TITLE "Chapter 04"
  INDEX 01 49:38:88
TRACK 5 AUDIO
  TITLE "Chapter 05"
  INDEX 01 58:49:94
TRACK 6 AUDIO
  TITLE "Chapter 06"
  INDEX 01 74:45:44
TRACK 7 AUDIO
  TITLE "Chapter 07"
  INDEX 01 100:23:69
TRACK 8 AUDIO
  TITLE "Chapter 08"
  INDEX 01 124:24:42
TRACK 9 AUDIO
  TITLE "Chapter 09"
  INDEX 01 133:12:86
TRACK 10 AUDIO
  TITLE "Chapter 10"
  INDEX 01 143:52:76
TRACK 11 AUDIO
  TITLE "Chapter 11"
  INDEX 01 167:41:81
TRACK 12 AUDIO
  TITLE "Chapter 12"
  INDEX 01 179:59:11
TRACK 13 AUDIO
  TITLE "Chapter 13"
  INDEX 01 194:15:55
TRACK 14 AUDIO
  TITLE "Chapter 14"
  INDEX 01 206:51:83
TRACK 15 AUDIO
  TITLE "Chapter 15"
  INDEX 01 222:21:39
TRACK 16 AUDIO
  TITLE "Chapter 16"
  INDEX 01 234:40:78
TRACK 17 AUDIO
  TITLE "Chapter 17"
  INDEX 01 246:7:03
TRACK 18 AUDIO
  TITLE "Chapter 18"
  INDEX 01 252:35:27
TRACK 19 AUDIO
  TITLE "Chapter 19"
  INDEX 01 261:56:54
TRACK 20 AUDIO
  TITLE "Chapter 20"
  INDEX 01 276:39:22
TRACK 21 AUDIO
  TITLE "Chapter 21"
  INDEX 01 284:51:46
TRACK 22 AUDIO
  TITLE "Chapter 22"
  INDEX 01 292:10:78
TRACK 23 AUDIO
  TITLE "Chapter 23"
  INDEX 01 313:54:49
TRACK 24 AUDIO
  TITLE "Chapter 24"
  INDEX 01 335:49:30
TRACK 25 AUDIO
  TITLE "Chapter 25"
  INDEX 01 344:4:35
TRACK 26 AUDIO
  TITLE "Chapter 26"
  INDEX 01 351:3:58
TRACK 27 AUDIO
  TITLE "Chapter 27"
  INDEX 01 375:32:45
TRACK 28 AUDIO
  TITLE "Chapter 28"
  INDEX 01 386:4:59
TRACK 29 AUDIO
  TITLE "Chapter 29"
  INDEX 01 403:18:46
TRACK 30 AUDIO
  TITLE "Chapter 30"
  INDEX 01 419:30:84
TRACK 31 AUDIO
  TITLE "Chapter 31"
  INDEX 01 426:16:15
TRACK 32 AUDIO
  TITLE "Chapter 32"
  INDEX 01 434:13:76
TRACK 33 AUDIO
  TITLE "Chapter 33"
  INDEX 01 445:27:65
TRACK 34 AUDIO
  TITLE "Chapter 34"
  INDEX 01 461:37:22
TRACK 35 AUDIO
  TITLE "Chapter 35"
  INDEX 01 476:44:63
TRACK 36 AUDIO
  TITLE "Chapter 36"
  INDEX 01 487:28:83
TRACK 37 AUDIO
  TITLE "Chapter 37"
  INDEX 01 494:58:90
TRACK 38 AUDIO
  TITLE "Chapter 38"
  INDEX 01 508:4:80
TRACK 39 AUDIO
  TITLE "Chapter 39"
  INDEX 01 514:54:63
TRACK 40 AUDIO
  TITLE "Chapter 40"
  INDEX 01 525:11:05
TRACK 41 AUDIO
  TITLE "Chapter 41"
  INDEX 01 536:37:30
TRACK 42 AUDIO
  TITLE "Chapter 42"
  INDEX 01 543:26:71
TRACK 43 AUDIO
  TITLE "Chapter 43"
  INDEX 01 558:27:53
TRACK 44 AUDIO
  TITLE "Chapter 44"
  INDEX 01 563:54:98
TRACK 45 AUDIO
  TITLE "Chapter 45"
  INDEX 01 572:46:50
TRACK 46 AUDIO
  TITLE "Chapter 46"
  INDEX 01 593:33:30
TRACK 47 AUDIO
  TITLE "Chapter 47"
  INDEX 01 605:29:10
TRACK 48 AUDIO
  TITLE "Chapter 48"
  INDEX 01 622:13:92
TRACK 49 AUDIO
  TITLE "Chapter 49"
  INDEX 01 628:29:78
TRACK 50 AUDIO
  TITLE "Chapter 50"
  INDEX 01 642:39:96
TRACK 51 AUDIO
  TITLE "Chapter 51"
  INDEX 01 650:26:63
TRACK 52 AUDIO
  TITLE "Chapter 52"
  INDEX 01 667:13:22
TRACK 53 AUDIO
  TITLE "Chapter 53"
  INDEX 01 675:47:01
TRACK 54 AUDIO
  TITLE "Chapter 54"
  INDEX 01 682:59:68
